<svg xmlns="http://www.w3.org/2000/svg" viewBox="0 0 512 512">
  <path fill="#1a237e" d="M256,0C114.6,0,0,114.6,0,256s114.6,256,256,256s256-114.6,256-256S397.4,0,256,0z"/>
  <path fill="#ffffff" d="M389.8,308.8l-30-151.3c-1.8-9.2-10-15.9-19.4-15.9h-29.7v-30c0-5.5-4.5-10-10-10h-90c-5.5,0-10,4.5-10,10v30
    h-29.7c-9.4,0-17.6,6.7-19.4,15.9l-30,151.3c-1.2,6.1,0.7,12.4,5.2,16.9c4.5,4.5,10.8,6.4,16.9,5.2l60.7-12.1
    c6.1-1.2,11.3-5.7,13.4-11.6l10-30h56.2l10,30c2.1,5.9,7.3,10.4,13.4,11.6l60.7,12.1c1.2,0.2,2.4,0.4,3.6,0.4
    c5.5,0,10.8-2.2,14.7-6.1C389.1,321.2,391,314.9,389.8,308.8z M220.7,121.6h70v20h-70V121.6z M170.3,161.6h171.4l25,126.3
    l-40.5-8.1l-10-30c-2.1-5.9-7.3-10.4-13.4-11.6h-93.6c-6.1,1.2-11.3,5.7-13.4,11.6l-10,30l-40.5,8.1L170.3,161.6z"/>
</svg>